<svg viewBox="0 0 400 240" xmlns="http://www.w3.org/2000/svg" style="width:100%;">
  <line x1="50" y1="210" x2="380" y2="210" stroke="#525252" stroke-width="1.5"/>
  <line x1="50" y1="210" x2="50" y2="20" stroke="#525252" stroke-width="1.5"/>
  <text x="215" y="238" text-anchor="middle" fill="#a3a3a3" font-size="12" font-family="ui-monospace,monospace">time</text>
  <text x="20" y="115" text-anchor="middle" fill="#a3a3a3" font-size="12" font-family="ui-monospace,monospace" transform="rotate(-90 20 115)">LTV</text>

  <path d="M50,190 Q100,130 150,118 Q200,112 250,115 L370,116" fill="none" stroke="#ef4444" stroke-width="2" stroke-linecap="round"/>
  <text x="375" y="120" fill="#ef4444" font-size="10" font-family="ui-monospace,monospace">friend</text>

  <path d="M50,195 Q90,140 130,100 Q160,85 180,82 Q210,72 240,55 Q270,45 300,40 Q330,37 370,36" fill="none" stroke="#fbbf24" stroke-width="2" stroke-linecap="round"/>
  <text x="375" y="40" fill="#fbbf24" font-size="10" font-family="ui-monospace,monospace">SC</text>
  <text x="375" y="50" fill="#fbbf24" font-size="9" font-family="ui-monospace,monospace">(bounded)</text>

  <path d="M50,198 Q100,180 150,155 Q200,115 240,70 Q270,40 300,22 L320,8" fill="none" stroke="#60a5fa" stroke-width="2.5" stroke-linecap="round"/>
  <path d="M312,14 L320,8 L310,12" fill="none" stroke="#60a5fa" stroke-width="2" stroke-linecap="round" stroke-linejoin="round"/>
  <text x="325" y="10" fill="#60a5fa" font-size="10" font-family="ui-monospace,monospace">SC</text>
  <text x="325" y="20" fill="#60a5fa" font-size="9" font-family="ui-monospace,monospace">(unbounded)</text>

  <circle cx="130" cy="100" r="3" fill="#fbbf24" opacity="0.6"/>
  <text x="130" y="94" text-anchor="middle" fill="#fbbf24" font-size="9" font-family="ui-monospace,monospace" opacity="0.7">f₁</text>
  <circle cx="240" cy="55" r="3" fill="#fbbf24" opacity="0.6"/>
  <text x="240" y="49" text-anchor="middle" fill="#fbbf24" font-size="9" font-family="ui-monospace,monospace" opacity="0.7">f₂</text>
  <circle cx="300" cy="40" r="3" fill="#fbbf24" opacity="0.6"/>
  <text x="300" y="34" text-anchor="middle" fill="#fbbf24" font-size="9" font-family="ui-monospace,monospace" opacity="0.7">f₃</text>

  <circle cx="150" cy="155" r="3" fill="#60a5fa" opacity="0.6"/>
  <text x="150" y="149" text-anchor="middle" fill="#60a5fa" font-size="9" font-family="ui-monospace,monospace" opacity="0.7">f₁</text>
  <circle cx="240" cy="70" r="3" fill="#60a5fa" opacity="0.6"/>
  <text x="240" y="64" text-anchor="middle" fill="#60a5fa" font-size="9" font-family="ui-monospace,monospace" opacity="0.7">f₂</text>
  <circle cx="300" cy="22" r="3" fill="#60a5fa" opacity="0.6"/>
  <text x="300" y="16" text-anchor="middle" fill="#60a5fa" font-size="9" font-family="ui-monospace,monospace" opacity="0.7">f₃</text>
</svg>
